<svg width="638" height="638" viewBox="0 0 638 638" fill="none" xmlns="http://www.w3.org/2000/svg">
<g clip-path="url(#clip0_14_280)">
<path d="M336.814 59.6362C401.97 59.6362 460.252 75.9061 510.031 108.003C533.57 123.279 551.446 140.634 563.192 159.55C574.908 178.419 580.835 199.429 580.835 221.984C580.835 253.071 569.818 278.608 548.079 297.875C527.767 316.102 502.939 325.338 474.279 325.338C444.285 325.338 421.397 314.527 406.268 293.226C401.566 286.468 394.553 268.776 385.398 240.64C375.234 209.491 355.527 193.695 326.821 193.695C306.09 193.695 288.431 202.717 274.326 220.501C260.314 238.178 253.208 260.182 253.208 285.902C253.208 329.803 269.392 369.301 301.295 403.309C327.348 430.818 360.555 444.763 399.999 444.763C418.527 444.763 434.323 443.189 446.938 440.069C459.554 436.965 476.25 430.588 496.593 421.108C501.543 418.677 507.082 417.438 513.088 417.438C525.098 417.438 535.882 423.126 545.146 434.35C554.472 445.681 559.204 459.137 559.204 474.352C559.204 490.316 552.408 507.381 539.001 525.058C525.486 542.857 507.548 558.638 485.653 571.926C438.078 600.781 381.099 615.399 316.285 615.399C278.563 615.399 243.153 609.91 211.048 599.099C178.943 588.288 149.228 571.834 122.693 550.197C88.6646 522.795 62.7821 491.219 45.7754 456.354C28.7997 421.505 20.1722 382.344 20.1722 339.987C20.1722 299.251 28.1945 261.512 44.0064 227.825C59.8183 194.139 83.8853 163.525 115.54 136.842C145.736 111.229 179.657 91.7479 216.339 78.9491C253.052 66.135 293.583 59.6362 336.814 59.6362ZM336.814 58.107C249.592 58.107 175.498 83.9647 114.516 135.68C50.5857 189.582 18.6205 257.689 18.6205 339.987C18.6205 425.573 52.9908 496.051 121.731 551.39C175.312 595.093 240.173 616.944 316.3 616.944C381.72 616.944 438.435 602.371 486.491 573.241C508.665 559.77 526.587 544.02 540.258 525.991C553.929 507.963 560.772 490.76 560.772 474.368C560.772 458.709 555.961 445.054 546.356 433.402C536.736 421.75 525.656 415.924 513.088 415.924C506.803 415.924 501.077 417.209 495.91 419.747C475.583 429.228 459.135 435.497 446.566 438.586C433.997 441.69 418.48 443.234 399.999 443.234C360.819 443.234 328.295 429.579 302.428 402.269C270.633 368.399 254.759 329.62 254.759 285.917C254.759 260.427 261.695 238.942 275.552 221.464C289.409 203.986 306.493 195.24 326.836 195.24C354.922 195.24 373.961 210.531 383.939 241.129C393.172 269.54 400.201 287.202 405.011 294.113C420.528 315.965 443.618 326.898 474.31 326.898C503.498 326.898 528.449 317.616 549.149 299.037C571.323 279.373 582.418 253.698 582.418 222.015C582.418 176.125 558.584 137.714 510.9 106.749C460.609 74.3158 402.59 58.107 336.814 58.107Z" fill="white"/>
<path d="M322.848 39.7574C388.004 39.7574 446.287 56.0274 496.065 88.1239C519.605 103.4 537.48 120.756 549.227 139.671C560.942 158.54 566.87 179.551 566.87 202.105C566.87 233.193 555.853 258.729 534.113 277.996C513.801 296.224 488.974 305.459 460.314 305.459C430.319 305.459 407.432 294.649 392.303 273.348C387.601 266.589 380.587 248.897 371.432 220.761C361.269 189.612 341.562 173.816 312.855 173.816C292.124 173.816 274.466 182.838 260.361 200.622C246.349 218.299 239.242 240.303 239.242 266.023C239.242 309.925 255.427 349.422 287.33 383.43C313.383 410.939 346.589 424.885 386.034 424.885C404.561 424.885 420.358 423.31 432.973 420.19C445.588 417.086 462.285 410.71 482.628 401.229C487.577 398.798 493.117 397.559 499.122 397.559C511.132 397.559 521.917 403.247 531.18 414.471C540.506 425.802 545.239 439.259 545.239 454.473C545.239 470.438 538.442 487.503 525.036 505.179C511.52 522.979 493.583 538.759 471.688 552.047C424.113 580.902 367.134 595.521 302.319 595.521C264.597 595.521 229.187 590.031 197.082 579.22C164.978 568.409 135.262 551.956 108.728 530.318C74.6992 502.916 48.8167 471.34 31.81 436.476C14.8343 401.627 6.20683 362.466 6.20683 320.109C6.20683 279.372 14.2292 241.634 30.0411 207.947C45.853 174.26 69.9199 143.647 101.575 116.963C131.771 91.3504 165.691 71.8692 202.374 59.0704C239.087 46.2562 279.618 39.7574 322.848 39.7574ZM322.848 38.2283C235.627 38.2283 161.533 64.0859 100.551 115.801C36.6203 169.703 4.65512 237.811 4.65512 320.109C4.65512 405.694 39.0254 476.172 107.766 531.526C161.347 575.229 226.208 597.08 302.335 597.08C367.755 597.08 424.47 582.508 472.526 553.378C494.7 539.906 512.622 524.156 526.293 506.128C539.963 488.099 546.806 470.896 546.806 454.504C546.806 438.846 541.996 425.191 532.391 413.539C522.77 401.887 511.691 396.061 499.122 396.061C492.838 396.061 487.112 397.345 481.945 399.883C461.617 409.364 445.169 415.633 432.601 418.722C420.032 421.826 404.515 423.371 386.034 423.371C346.853 423.371 314.329 409.716 288.462 382.405C256.668 348.535 240.794 309.756 240.794 266.054C240.794 240.563 247.73 219.079 261.587 201.601C275.444 184.123 292.528 175.376 312.871 175.376C340.957 175.376 359.996 190.668 369.974 221.265C379.206 249.677 386.235 267.338 391.046 274.25C406.563 296.101 429.652 307.034 460.345 307.034C489.533 307.034 514.484 297.753 535.184 279.174C557.358 259.509 568.452 233.835 568.452 202.151C568.452 156.262 544.618 117.85 496.934 86.8853C446.643 54.4371 388.625 38.2283 322.848 38.2283Z" fill="white"/>
<path d="M318.193 19.8787C383.349 19.8787 441.631 36.1487 491.41 68.2452C514.95 83.5212 532.825 100.877 544.572 119.792C556.287 138.662 562.215 159.672 562.215 182.227C562.215 213.314 551.197 238.85 529.458 258.118C509.146 276.345 484.319 285.581 455.659 285.581C425.664 285.581 402.777 274.77 387.648 253.469C382.946 246.71 375.932 229.018 366.777 200.882C356.613 169.734 336.907 153.938 308.2 153.938C287.469 153.938 269.811 162.96 255.706 180.743C241.694 198.42 234.587 220.424 234.587 246.144C234.587 290.046 250.771 329.543 282.675 363.551C308.728 391.06 341.934 405.006 381.379 405.006C399.906 405.006 415.702 403.431 428.318 400.312C440.933 397.207 457.63 390.831 477.972 381.35C482.922 378.919 488.462 377.68 494.467 377.68C506.477 377.68 517.262 383.369 526.525 394.593C535.851 405.923 540.584 419.38 540.584 434.595C540.584 450.559 533.787 467.624 520.381 485.301C506.865 503.1 488.927 518.88 467.033 532.169C419.458 561.023 362.479 575.642 297.664 575.642C259.942 575.642 224.532 570.152 192.427 559.341C160.322 548.53 130.607 532.077 104.073 510.44C70.0441 483.038 44.1616 451.461 27.1549 416.597C10.1792 381.748 1.55171 342.587 1.55171 300.23C1.55171 259.494 9.57404 221.755 25.3859 188.068C41.1978 154.381 65.2648 123.768 96.9196 97.0846C127.116 71.4716 161.036 51.9905 197.719 39.1917C234.432 26.3775 274.963 19.8787 318.193 19.8787ZM318.193 18.3496C230.972 18.3496 156.878 44.2072 95.8955 95.9225C31.9652 149.824 0 217.932 0 300.23C0 385.815 34.3703 456.293 103.111 511.648C156.691 555.35 221.553 577.202 297.68 577.202C363.1 577.202 419.814 562.629 467.871 533.499C490.045 520.027 507.967 504.277 521.637 486.249C535.308 468.22 542.151 451.018 542.151 434.625C542.151 418.967 537.341 405.312 527.736 393.66C518.115 382.008 507.036 376.182 494.467 376.182C488.183 376.182 482.457 377.466 477.29 380.005C456.962 389.485 440.514 395.755 427.945 398.844C415.377 401.948 399.859 403.492 381.379 403.492C342.198 403.492 309.674 389.837 283.807 362.527C252.013 328.656 236.139 289.878 236.139 246.175C236.139 220.684 243.075 199.2 256.932 181.722C270.788 164.244 287.873 155.497 308.216 155.497C336.302 155.497 355.341 170.789 365.318 201.387C374.551 229.798 381.58 247.46 386.391 254.371C401.908 276.222 424.997 287.156 455.69 287.156C484.878 287.156 509.829 277.874 530.529 259.295C552.703 239.63 563.797 213.956 563.797 182.273C563.797 136.383 539.963 97.9715 492.279 67.0066C441.988 34.5584 383.97 18.3496 318.193 18.3496Z" fill="white"/>
<path d="M322.848 1.52913C388.004 1.52913 446.287 17.7991 496.065 49.8956C519.605 65.1716 537.48 82.5273 549.227 101.443C560.942 120.312 566.87 141.322 566.87 163.877C566.87 194.964 555.853 220.501 534.113 239.768C513.801 257.995 488.974 267.231 460.314 267.231C430.319 267.231 407.432 256.42 392.303 235.119C387.601 228.361 380.587 210.669 371.432 182.533C361.269 151.384 341.562 135.588 312.855 135.588C292.124 135.588 274.466 144.61 260.361 162.394C246.349 180.071 239.242 202.075 239.242 227.795C239.242 271.696 255.427 311.194 287.33 345.202C313.383 372.711 346.589 386.656 386.034 386.656C404.561 386.656 420.358 385.081 432.973 381.962C445.588 378.858 462.285 372.481 482.628 363.001C487.577 360.569 493.117 359.331 499.122 359.331C511.132 359.331 521.917 365.019 531.18 376.243C540.506 387.574 545.239 401.03 545.239 416.245C545.239 432.209 538.442 449.274 525.036 466.951C511.52 484.75 493.583 500.531 471.688 513.819C424.113 542.674 367.134 557.292 302.319 557.292C264.597 557.292 229.187 551.803 197.082 540.992C164.978 530.181 135.262 513.727 108.728 492.09C74.6992 464.688 48.8167 433.111 31.81 398.247C14.8343 363.398 6.20683 324.237 6.20683 281.88C6.20683 241.144 14.2292 203.405 30.0411 169.718C45.853 136.032 69.9199 105.418 101.575 78.735C131.771 53.1221 165.691 33.6409 202.374 20.8421C239.087 8.02795 279.618 1.52913 322.848 1.52913ZM322.848 0C235.627 0 161.533 25.8576 100.551 77.5729C36.6203 131.475 4.65512 199.582 4.65512 281.88C4.65512 367.466 39.0254 437.944 107.766 493.298C161.347 537.001 226.208 558.852 302.335 558.852C367.755 558.852 424.47 544.279 472.526 515.149C494.7 501.678 512.622 485.928 526.293 467.899C539.963 449.871 546.806 432.668 546.806 416.276C546.806 400.617 541.996 386.962 532.391 375.31C522.77 363.658 511.691 357.832 499.122 357.832C492.838 357.832 487.112 359.117 481.945 361.655C461.617 371.136 445.169 377.405 432.601 380.494C420.032 383.598 404.515 385.143 386.034 385.143C346.853 385.143 314.329 371.487 288.462 344.177C256.668 310.307 240.794 271.528 240.794 227.825C240.794 202.335 247.73 180.85 261.587 163.373C275.444 145.895 292.528 137.148 312.871 137.148C340.957 137.148 359.996 152.439 369.974 183.037C379.206 211.448 386.235 229.11 391.046 236.022C406.563 257.873 429.652 268.806 460.345 268.806C489.533 268.806 514.484 259.524 535.184 240.945C557.358 221.281 568.452 195.607 568.452 163.923C568.452 118.034 544.618 79.6219 496.934 48.657C446.643 16.2088 388.625 0 322.848 0Z" fill="white"/>
<path d="M366.296 77.9858C432.073 77.9858 490.091 94.1946 540.367 126.612C588.035 157.562 611.885 195.989 611.885 241.878C611.885 273.562 600.79 299.236 578.616 318.901C557.916 337.48 532.965 346.761 503.777 346.761C473.1 346.761 450.011 335.843 434.478 313.977C429.668 307.065 422.639 289.388 413.406 260.992C403.428 230.394 384.389 215.103 356.303 215.103C335.976 215.103 318.891 223.85 305.019 241.328C291.162 258.806 284.226 280.305 284.226 305.781C284.226 349.483 300.116 388.277 331.895 422.132C357.762 449.443 390.285 463.098 429.466 463.098C447.947 463.098 463.464 461.553 476.033 458.449C488.586 455.36 505.034 449.076 525.377 439.61C530.544 437.072 536.27 435.787 542.555 435.787C555.108 435.787 566.203 441.614 575.823 453.266C585.428 464.917 590.239 478.588 590.239 494.231C590.239 510.623 583.395 527.826 569.725 545.854C556.054 563.883 538.132 579.633 515.958 593.105C467.917 622.235 411.187 636.807 345.767 636.807C269.625 636.807 204.779 614.956 151.198 571.253C82.4733 515.929 48.1029 445.452 48.1029 359.866C48.1029 277.568 80.0681 209.461 143.998 155.559C204.981 103.843 279.075 77.9858 366.296 77.9858Z" fill="white"/>
<path d="M613.173 638C626.884 638 638 627.046 638 613.534C638 600.022 626.884 589.068 613.173 589.068C599.461 589.068 588.345 600.022 588.345 613.534C588.345 627.046 599.461 638 613.173 638Z" fill="white"/>
</g>
<defs>
<clipPath id="clip0_14_280">
<rect width="638" height="638" fill="white"/>
</clipPath>
</defs>
</svg>